<svg width="1440" height="190" viewBox="0 0 1440 190" fill="none" xmlns="http://www.w3.org/2000/svg">
<g clip-path="url(#clip0_65_5)">
<path d="M1440 133L1392 114C1344 95.0004 1248 57.0004 1152 41.2004C1056 25.0004 960 32.0004 864 50.7004C768 70.0004 672 101 576 98.2004C480 95.0004 384 57.0004 288 53.8004C192 51.0004 96 82.0004 0 91.8004C-96 101 -192 89.0004 -288 85.5004C-384 82.0004 -480 89.0004 -576 104.5C-672 120 -768 146 -864 161.5C-960 177 -1056 184 -1152 186.8C-1248 190 -1344 190 -1440 174.2C-1536 158 -1632 127 -1728 117.2C-1824 108 -1920 120 -2016 120.3C-2112 120 -2208 108 -2304 98.2004C-2400 89.0004 -2496 82.0004 -2592 85.5004C-2688 89.0004 -2784 101 -2880 120.3C-2976 139 -3072 165 -3168 174.2C-3264 184 -3360 177 -3456 167.8C-3552 158 -3648 146 -3744 139.3C-3840 133 -3936 133 -4032 136.2C-4128 139 -4224 146 -4320 133C-4416 120 -4512 89.0004 -4608 79.2004C-4704 70.0004 -4800 82.0004 -4896 76.0004C-4992 70.0004 -5088 44.0004 -5184 50.7004C-5280 57.0004 -5376 95.0004 -5424 114L-5472 133V0.000442505H-5424C-5376 0.000442505 -5280 0.000442505 -5184 0.000442505C-5088 0.000442505 -4992 0.000442505 -4896 0.000442505C-4800 0.000442505 -4704 0.000442505 -4608 0.000442505C-4512 0.000442505 -4416 0.000442505 -4320 0.000442505C-4224 0.000442505 -4128 0.000442505 -4032 0.000442505C-3936 0.000442505 -3840 0.000442505 -3744 0.000442505C-3648 0.000442505 -3552 0.000442505 -3456 0.000442505C-3360 0.000442505 -3264 0.000442505 -3168 0.000442505C-3072 0.000442505 -2976 0.000442505 -2880 0.000442505C-2784 0.000442505 -2688 0.000442505 -2592 0.000442505C-2496 0.000442505 -2400 0.000442505 -2304 0.000442505C-2208 0.000442505 -2112 0.000442505 -2016 0.000442505C-1920 0.000442505 -1824 0.000442505 -1728 0.000442505C-1632 0.000442505 -1536 0.000442505 -1440 0.000442505C-1344 0.000442505 -1248 0.000442505 -1152 0.000442505C-1056 0.000442505 -960 0.000442505 -864 0.000442505C-768 0.000442505 -672 0.000442505 -576 0.000442505C-480 0.000442505 -384 0.000442505 -288 0.000442505C-192 0.000442505 -96 0.000442505 0 0.000442505C96 0.000442505 192 0.000442505 288 0.000442505C384 0.000442505 480 0.000442505 576 0.000442505C672 0.000442505 768 0.000442505 864 0.000442505C960 0.000442505 1056 0.000442505 1152 0.000442505C1248 0.000442505 1344 0.000442505 1392 0.000442505H1440V133Z" fill="url(#paint0_linear_65_5)"/>
<path opacity="0.9" d="M1440 181.342L1392 171.842C1344 162.342 1248 143.342 1152 143.342C1056 143.342 960 162.342 864 146.542C768 130.342 672 80.3424 576 80.0424C480 80.3424 384 130.342 288 159.142C192 187.342 96 194.342 0 187.642C-96 181.342 -192 162.342 -288 133.842C-384 105.342 -480 67.3424 -576 76.8424C-672 86.3424 -768 143.342 -864 162.342C-960 181.342 -1056 162.342 -1152 133.842C-1248 105.342 -1344 67.3424 -1440 76.8424C-1536 86.3424 -1632 143.342 -1728 168.642C-1824 194.342 -1920 187.342 -2016 165.542C-2112 143.342 -2208 105.342 -2304 108.542C-2400 111.342 -2496 156.342 -2592 165.542C-2688 175.342 -2784 149.342 -2880 127.542C-2976 105.342 -3072 86.3424 -3168 92.6424C-3264 99.3424 -3360 130.342 -3456 143.342C-3552 156.342 -3648 149.342 -3744 146.542C-3840 143.342 -3936 143.342 -4032 127.542C-4128 111.342 -4224 80.3424 -4320 86.3424C-4416 92.3424 -4512 137.342 -4608 149.642C-4704 162.342 -4800 143.342 -4896 143.342C-4992 143.342 -5088 162.342 -5184 165.542C-5280 168.342 -5376 156.342 -5424 149.642L-5472 143.342V10.3424H-5424C-5376 10.3424 -5280 10.3424 -5184 10.3424C-5088 10.3424 -4992 10.3424 -4896 10.3424C-4800 10.3424 -4704 10.3424 -4608 10.3424C-4512 10.3424 -4416 10.3424 -4320 10.3424C-4224 10.3424 -4128 10.3424 -4032 10.3424C-3936 10.3424 -3840 10.3424 -3744 10.3424C-3648 10.3424 -3552 10.3424 -3456 10.3424C-3360 10.3424 -3264 10.3424 -3168 10.3424C-3072 10.3424 -2976 10.3424 -2880 10.3424C-2784 10.3424 -2688 10.3424 -2592 10.3424C-2496 10.3424 -2400 10.3424 -2304 10.3424C-2208 10.3424 -2112 10.3424 -2016 10.3424C-1920 10.3424 -1824 10.3424 -1728 10.3424C-1632 10.3424 -1536 10.3424 -1440 10.3424C-1344 10.3424 -1248 10.3424 -1152 10.3424C-1056 10.3424 -960 10.3424 -864 10.3424C-768 10.3424 -672 10.3424 -576 10.3424C-480 10.3424 -384 10.3424 -288 10.3424C-192 10.3424 -96 10.3424 0 10.3424C96 10.3424 192 10.3424 288 10.3424C384 10.3424 480 10.3424 576 10.3424C672 10.3424 768 10.3424 864 10.3424C960 10.3424 1056 10.3424 1152 10.3424C1248 10.3424 1344 10.3424 1392 10.3424H1440V181.342Z" fill="url(#paint1_radial_65_5)"/>
</g>
<defs>
<linearGradient id="paint0_linear_65_5" x1="1440" y1="0.000442505" x2="1440" y2="188.479" gradientUnits="userSpaceOnUse">
<stop stop-color="#F7776B"/>
<stop offset="1" stop-color="#F7776B"/>
</linearGradient>
<radialGradient id="paint1_radial_65_5" cx="0" cy="0" r="1" gradientUnits="userSpaceOnUse" gradientTransform="translate(1440 100.171) rotate(90) scale(89.8288 3456)">
<stop stop-color="#F7776B"/>
<stop offset="1" stop-color="#F7776B" stop-opacity="0.92"/>
</radialGradient>
<clipPath id="clip0_65_5">
<rect width="1440" height="190" fill="white" transform="matrix(-1 0 0 -1 1440 190)"/>
</clipPath>
</defs>
</svg>
